<svg version="1.1" xmlns="http://www.w3.org/2000/svg" xmlns:xlink="http://www.w3.org/1999/xlink" x="0px" y="0px" viewBox="0 0 290.6 512" xml:space="preserve">
<path d="M206.9,126.7c0.7-0.8,4-3.4,16.8-3.4l42.1,0c13.7,0,24.8-11.1,24.8-24.8V24.9c0-13.7-11.1-24.8-24.8-24.8L203.3,0
	c-38.6,0-71.4,12.7-94.9,36.8c-23.4,24-35.7,57.5-35.7,96.8v39.7H24.8C11.1,173.3,0,184.4,0,198.1v79.2c0,13.7,11.1,24.8,24.8,24.8
	h47.8v184.9c0,13.7,11.1,24.8,24.8,24.8h82c13.7,0,24.8-11.1,24.8-24.8V302.2h58.5c13.7,0,24.8-11.1,24.8-24.8l0-79.2
	c0-9-4.9-17.3-12.8-21.7c-3.7-2-7.9-3.1-12.3-3.1h-58.3V142C204.3,131.7,205.7,128,206.9,126.7z"/>
</svg>