<svg version="1.1" xmlns="http://www.w3.org/2000/svg" xmlns:xlink="http://www.w3.org/1999/xlink" x="0px" y="0px"
	 viewBox="0 0 130.5 131" style="enable-background:new 0 0 130.5 131;" xml:space="preserve">
<style type="text/css">
	.st0{fill:#1581FF;}
</style>
<g>
	<path class="st0" d="M41.9,129.7c-5.8-1.2-21.7-4.8-33.5-18.3C-1.6,100-2.4,94.3,4.6,80.9c0.8-1.5,1.5-3,2.2-4.5
		c4.3-8.8,5.8-17.9,4.2-27.6C9.7,41,7.3,33.7,4.1,26.5c-3.5-8-2-12.6,5.3-17.3c3.2-2.1,6.8-3.5,10.5-4.6c18.7-5.4,37.8-6,56.8-2.4
		c14.1,2.7,25.6,8.5,34.4,17c0,0,13.3,13.1,18.3,35.8c0.8,3.5,1,6.7,1,6.7s0.6,6.7-0.9,14.3c-3.6,19.1-13.7,31.2-13.7,31.2
		c-13,15.7-30.1,20-35.2,21.2c-8.2,2-16.1,2.3-20,2.3C55.6,131.1,49.4,131.2,41.9,129.7z"/>
</g>
</svg>