<?xml version="1.0" encoding="iso-8859-1"?>
<!-- Generator: Adobe Illustrator 21.0.0, SVG Export Plug-In . SVG Version: 6.00 Build 0)  -->
<svg version="1.1" id="Layer_1" xmlns="http://www.w3.org/2000/svg" xmlns:xlink="http://www.w3.org/1999/xlink" x="0px" y="0px"
	 viewBox="11 141 392 512" style="enable-background:new 11 141 392 512;" xml:space="preserve">
<path style="fill:#FFFFFF;" d="M207,141C98.925,141,11,228.925,11,337c0,34.594,9.14,68.605,26.431,98.355
	c4.031,6.936,8.537,13.695,13.395,20.09L198.484,653h17.031l147.659-197.554c4.857-6.396,9.363-13.154,13.395-20.09
	C393.86,405.605,403,371.594,403,337C403,228.925,315.075,141,207,141z M207,402c-35.841,0-65-29.159-65-65s29.159-65,65-65
	s65,29.159,65,65S242.841,402,207,402z"/>
</svg>
