<svg version="1.1" xmlns="http://www.w3.org/2000/svg" xmlns:xlink="http://www.w3.org/1999/xlink" x="0px" y="0px"
	 viewBox="0 0 548.1 312.6" style="enable-background:new 0 0 548.1 312.6;" xml:space="preserve">
<g>
	<path d="M545,283.2c-16.1-34.7-50-58.3-75.6-85.4c-13.4-14.1-12.2-26.4-2-41.5c12.3-18.3,26.7-35.3,39.9-53.1
		c12.5-16.9,25.3-34.5,34.3-53.6c3.6-7.6,10.3-21.3,3.9-29.3c-7.4-9.1-23.3-5.5-33.7-5.4c-12.3,0.1-24.7,0.2-37,0.3
		c-13.3,0.1-45.5-5.7-54.5,7c-6.2,8.7-9.1,21.3-13.6,31.1c-5.5,11.9-11.4,23.7-18,35.1c-10.5,18.3-21.8,38.1-36.8,53.1
		c-5.3,5.3-12.2,13.6-20.5,10.7c-10.5-3.7-11.3-19.1-11.8-28.3c-1-20,0.4-40.6,1.1-60.6c0.5-15.6,5.9-42.8-8-54.3
		c-15-12.4-47.3-8.7-65.2-8.5c-15.9,0.2-35-0.4-50.1,5.9c-3.9,1.6-18.5,10-15.8,15.7c0.6,1.4,10.9,2.8,12.7,3.6
		c4.5,1.8,8.8,4.4,11.9,8.2c11.4,14.2,10,40.9,10,57.9c0,11.1-1.1,22.2-2.5,33.2c-1,7.6-2,20.4-8.2,25.9
		c-24.1,21.9-62.8-64.8-71-81.2c-5.5-10.9-10.7-21.9-15.5-33.1c-3.8-9-6.8-16.8-16.2-20.7c-7.8-3.2-17.1-1.8-25.4-1.7
		c-13.5,0.1-27.1,0.2-40.6,0.3c-8.2,0.1-17.9-1.1-26,0.7c-23.6,5.5-1.6,37,4.4,49.7c11.3,24.3,23.8,48,37,71.4
		c39.8,70.3,91.3,148.1,174.2,170.6c17.7,4.8,35.2,4.7,53.2,4.7c10.8,0,28.3,2.9,36.4-6.3c5.6-6.4,3.9-16.2,4.4-24
		c0.7-10.3,2.6-21.9,8.4-30.7c15.3-23,35-1,47.3,13.5c12.6,14.7,25.6,31.5,42.9,41c11.3,6.2,20,7,32.4,7.1
		c23.5,0.3,47.2,0.3,70.7-0.6C539.1,311.3,553.8,302.1,545,283.2z"/>
</g>
</svg>